<mxfile host="app.diagrams.net" modified="2023-08-25T09:14:30.618Z" agent="Mozilla/5.0 (Windows NT 10.0; Win64; x64) AppleWebKit/537.36 (KHTML, like Gecko) Chrome/116.0.0.0 Safari/537.36" etag="sKgm6ecsqRX6bQ6L0jcr" version="21.6.9" type="github">
  <diagram name="第 1 页" id="RByQ9hrg6XHV4swKEHLu">
    <mxGraphModel dx="1562" dy="862" grid="1" gridSize="10" guides="1" tooltips="1" connect="1" arrows="1" fold="1" page="1" pageScale="1" pageWidth="827" pageHeight="1169" math="0" shadow="0">
      <root>
        <mxCell id="0" />
        <mxCell id="1" parent="0" />
        <mxCell id="UUMNnpdY9hmEk74NaukQ-12" style="edgeStyle=orthogonalEdgeStyle;rounded=0;orthogonalLoop=1;jettySize=auto;html=1;exitX=1;exitY=0.5;exitDx=0;exitDy=0;entryX=0.5;entryY=1;entryDx=0;entryDy=0;entryPerimeter=0;fillColor=#d5e8d4;strokeColor=#82b366;" parent="1" source="UUMNnpdY9hmEk74NaukQ-1" target="UUMNnpdY9hmEk74NaukQ-4" edge="1">
          <mxGeometry relative="1" as="geometry" />
        </mxCell>
        <mxCell id="UUMNnpdY9hmEk74NaukQ-1" value="1.flink&lt;br&gt;yz3_bs字段填入值‘flink’&lt;br&gt;2.flink&lt;br style=&quot;border-color: var(--border-color);&quot;&gt;如果监听到字段值为‘flink’ 则中止循环&lt;br&gt;3.flink只同步石家庄数据" style="whiteSpace=wrap;html=1;aspect=fixed;" parent="1" vertex="1">
          <mxGeometry x="320" y="510" width="110" height="110" as="geometry" />
        </mxCell>
        <mxCell id="UUMNnpdY9hmEk74NaukQ-5" style="edgeStyle=orthogonalEdgeStyle;rounded=0;orthogonalLoop=1;jettySize=auto;html=1;entryX=0;entryY=0.5;entryDx=0;entryDy=0;exitX=0.5;exitY=1;exitDx=0;exitDy=0;exitPerimeter=0;fillColor=#d5e8d4;strokeColor=#82b366;" parent="1" source="UUMNnpdY9hmEk74NaukQ-3" target="UUMNnpdY9hmEk74NaukQ-1" edge="1">
          <mxGeometry relative="1" as="geometry" />
        </mxCell>
        <mxCell id="UUMNnpdY9hmEk74NaukQ-6" value="监听指定表" style="edgeLabel;html=1;align=center;verticalAlign=middle;resizable=0;points=[];" parent="UUMNnpdY9hmEk74NaukQ-5" vertex="1" connectable="0">
          <mxGeometry x="-0.0308" y="5" relative="1" as="geometry">
            <mxPoint as="offset" />
          </mxGeometry>
        </mxCell>
        <mxCell id="Y7PNYqZZYSkVSbYkPQJV-4" style="edgeStyle=orthogonalEdgeStyle;rounded=0;orthogonalLoop=1;jettySize=auto;html=1;exitX=0.855;exitY=1;exitDx=0;exitDy=-4.35;exitPerimeter=0;entryX=0;entryY=0.25;entryDx=0;entryDy=0;fillColor=#dae8fc;strokeColor=#6c8ebf;" edge="1" parent="1" source="UUMNnpdY9hmEk74NaukQ-3" target="UUMNnpdY9hmEk74NaukQ-1">
          <mxGeometry relative="1" as="geometry">
            <Array as="points">
              <mxPoint x="81" y="538" />
              <mxPoint x="205" y="538" />
            </Array>
          </mxGeometry>
        </mxCell>
        <mxCell id="UUMNnpdY9hmEk74NaukQ-3" value="二版本库" style="shape=cylinder3;whiteSpace=wrap;html=1;boundedLbl=1;backgroundOutline=1;size=15;" parent="1" vertex="1">
          <mxGeometry x="30" y="300" width="60" height="80" as="geometry" />
        </mxCell>
        <mxCell id="UUMNnpdY9hmEk74NaukQ-9" style="edgeStyle=orthogonalEdgeStyle;rounded=0;orthogonalLoop=1;jettySize=auto;html=1;entryX=1;entryY=0.5;entryDx=0;entryDy=0;exitX=0.5;exitY=0;exitDx=0;exitDy=0;exitPerimeter=0;fillColor=#d5e8d4;strokeColor=#82b366;" parent="1" source="UUMNnpdY9hmEk74NaukQ-4" target="UUMNnpdY9hmEk74NaukQ-8" edge="1">
          <mxGeometry relative="1" as="geometry" />
        </mxCell>
        <mxCell id="UUMNnpdY9hmEk74NaukQ-10" value="监听指定表" style="edgeLabel;html=1;align=center;verticalAlign=middle;resizable=0;points=[];" parent="UUMNnpdY9hmEk74NaukQ-9" vertex="1" connectable="0">
          <mxGeometry x="0.0889" y="-1" relative="1" as="geometry">
            <mxPoint as="offset" />
          </mxGeometry>
        </mxCell>
        <mxCell id="Y7PNYqZZYSkVSbYkPQJV-1" style="edgeStyle=orthogonalEdgeStyle;rounded=0;orthogonalLoop=1;jettySize=auto;html=1;exitX=0;exitY=0.5;exitDx=0;exitDy=0;exitPerimeter=0;fillColor=#dae8fc;strokeColor=#6c8ebf;" edge="1" parent="1" source="UUMNnpdY9hmEk74NaukQ-4" target="UUMNnpdY9hmEk74NaukQ-8">
          <mxGeometry relative="1" as="geometry" />
        </mxCell>
        <mxCell id="Y7PNYqZZYSkVSbYkPQJV-3" value="监听指定表" style="edgeLabel;html=1;align=center;verticalAlign=middle;resizable=0;points=[];" vertex="1" connectable="0" parent="Y7PNYqZZYSkVSbYkPQJV-1">
          <mxGeometry x="-0.1883" y="-4" relative="1" as="geometry">
            <mxPoint as="offset" />
          </mxGeometry>
        </mxCell>
        <mxCell id="UUMNnpdY9hmEk74NaukQ-4" value="3.0库" style="shape=cylinder3;whiteSpace=wrap;html=1;boundedLbl=1;backgroundOutline=1;size=15;" parent="1" vertex="1">
          <mxGeometry x="680" y="280" width="60" height="80" as="geometry" />
        </mxCell>
        <mxCell id="UUMNnpdY9hmEk74NaukQ-11" style="edgeStyle=orthogonalEdgeStyle;rounded=0;orthogonalLoop=1;jettySize=auto;html=1;entryX=0.5;entryY=0;entryDx=0;entryDy=0;entryPerimeter=0;fillColor=#dae8fc;strokeColor=#6c8ebf;" parent="1" source="UUMNnpdY9hmEk74NaukQ-8" target="UUMNnpdY9hmEk74NaukQ-3" edge="1">
          <mxGeometry relative="1" as="geometry" />
        </mxCell>
        <mxCell id="UUMNnpdY9hmEk74NaukQ-8" value="1.flink&lt;br&gt;如果监听到字段值为‘flink’ 则中止循环&lt;br&gt;2.监听数据同步，并把同步的数据存入‘flink’值" style="whiteSpace=wrap;html=1;aspect=fixed;" parent="1" vertex="1">
          <mxGeometry x="270" y="20" width="110" height="110" as="geometry" />
        </mxCell>
        <mxCell id="UUMNnpdY9hmEk74NaukQ-13" value="表增加&amp;nbsp; yz3_bs&amp;nbsp; &amp;nbsp; &amp;nbsp;如： t_ajjzlist&amp;nbsp; yz3_bs 字段初始值为空" style="shape=tape;whiteSpace=wrap;html=1;" parent="1" vertex="1">
          <mxGeometry x="100" y="280" width="120" height="120" as="geometry" />
        </mxCell>
        <mxCell id="UUMNnpdY9hmEk74NaukQ-14" value="表增加&amp;nbsp; yz3_bs&lt;br&gt;1.系统对有flink 数据行修改，清空flink 标识" style="shape=tape;whiteSpace=wrap;html=1;" parent="1" vertex="1">
          <mxGeometry x="760" y="260" width="120" height="120" as="geometry" />
        </mxCell>
      </root>
    </mxGraphModel>
  </diagram>
</mxfile>
